 http://img580.imageshack.us/img580/1581/rockytrails2010.jpg

Country.......: USA
Genre.........: Adventure, Comedy, Horror
Date release..: 2010 [World]
Director......: Drew Rosas
Writers.......: Drew Rosas
Duration......: 72 min.
More..........: http://www.imdb.com/title/tt1543752
Trailer.......:

Pilot :
A hyper-hipster 1980s horror comedy about a group of teenagers that discover a mysterious abandoned building where bad things happen. Shot in Wisconsin for $6000, Blood Junkie is a refreshing new vision in DIY independent film making.

Cats :
Nick Sommer   	 ...  	Craig Wilson
Mike Johnson 	... 	Teddy Bender
Sarah Luther 	... 	Laura
Emily Treolo 	... 	Rachel
Andrew Swant 	... 	The Creature
Ross Bachhuber 	... 	Jef Bolstead
Bobby Ciraldo 	... 	Billy the Butt
Brady Cohen 	... 	Andy
Kelly Cunningham 	... 	Rachel s Boobs
Eric Gerber 	... 	Radio Reporter (voice)
Kelly Hendzel 	... 	Speed Walker
Carrie Hitchcock 	... 	Mrs. Bender
Dave Kiehl 	... 	Hank Sanders
Anne Killelea 	... 	Jenifer Gantly
Krysten Patrickus 	... 	Nurse 

Data Technical :
!!! SAMPLE !!!
Audio.....: English
Subtitles.: None
Format                           : AVI
Format/Info                      : Audio Video Interleave
File size                        : 699 MiB
Duration                         : 1h 12mn
Overall bit rate                 : 1 351 Kbps
Writing application              : FairUse Wizard - http://fairusewizard.com
Writing library                  : The best and REALLY easy backup tool
Video
ID                               : 0
Format                           : MPEG-4 Visual
Format profile                   : Advanced Simple@L5
Format settings, BVOP            : Yes
Format settings, QPel            : No
Format settings, GMC             : No warppoints
Format settings, Matrix          : Default (MPEG)
Muxing mode                      : Packed bitstream
Codec ID                         : XVID
Codec ID/Hint                    : XviD
Duration                         : 1h 12mn
Bit rate                         : 1 214 Kbps
Width                            : 688 pixels
Height                           : 384 pixels
Display aspect ratio             : 16:9
Frame rate                       : 23.976 fps
Color space                      : YUV
Chroma subsampling               : 4:2:0
Bit depth                        : 8 bits
Scan type                        : Progressive
Bits/(Pixel*Frame)               : 0.192
Stream size                      : 628 MiB (90%)
Writing library                  : XviD 1.2.0.dev47 (UTC 2006-11-01)
Audio
ID                               : 1
Format                           : MPEG Audio
Format version                   : Version 1
Format profile                   : Layer 3
Mode                             : Joint stereo
Mode extension                   : MS Stereo
Codec ID                         : 55
Codec ID/Hint                    : MP3
Duration                         : 1h 12mn
Bit rate mode                    : Constant
Bit rate                         : 128 Kbps
Channel(s)                       : 2 channels
Sampling rate                    : 48.0 KHz
Stream size                      : 66.2 MiB (9%)
Alignment                        : Aligned on interleaves
Interleave, duration             : 42 ms (1.00 video frame)
Interleave, preload duration     : 504 ms
Writing library                  : LAME3.97 
Encoding settings                : -m j -V 4 -q 2 -lowpass 17 -b 128

Screen : 
http://img6.imageshack.us/img6/9430/rockytrails2010s1.jpg 
http://img42.imageshack.us/img42/1153/rockytrails2010s2.jpg 
http://img34.imageshack.us/img34/1741/rockytrails2010s3.jpg 
http://img707.imageshack.us/img707/3476/rockytrails2010s4.jpg 
http://img24.imageshack.us/img24/1593/rockytrails2010s5.jpg